<svg width="50" height="50" viewBox="0 0 50 50" fill="none" xmlns="http://www.w3.org/2000/svg">
<path d="M25.5553 25.2777C26.7012 25.2777 27.6824 24.8693 28.4991 24.0527C29.3144 23.2374 29.722 22.2568 29.722 21.111C29.722 19.9652 29.3144 18.9839 28.4991 18.1672C27.6824 17.352 26.7012 16.9443 25.5553 16.9443C24.4095 16.9443 23.4289 17.352 22.6137 18.1672C21.797 18.9839 21.3887 19.9652 21.3887 21.111C21.3887 22.2568 21.797 23.2374 22.6137 24.0527C23.4289 24.8693 24.4095 25.2777 25.5553 25.2777ZM25.5553 45.3297C25.2776 45.3297 24.9998 45.2777 24.722 45.1735C24.4442 45.0693 24.2012 44.9304 23.9928 44.7568C18.9234 40.2777 15.1387 36.12 12.6387 32.2839C10.1387 28.4464 8.88867 24.861 8.88867 21.5277C8.88867 16.3193 10.5644 12.17 13.9158 9.07975C17.2658 5.98947 21.1456 4.44434 25.5553 4.44434C29.9651 4.44434 33.8449 5.98947 37.1949 9.07975C40.5463 12.17 42.222 16.3193 42.222 21.5277C42.222 24.861 40.972 28.4464 38.472 32.2839C35.972 36.12 32.1873 40.2777 27.1178 44.7568C26.9095 44.9304 26.6664 45.0693 26.3887 45.1735C26.1109 45.2777 25.8331 45.3297 25.5553 45.3297Z" fill="#002C73"/>
<circle cx="25.5562" cy="21.1109" r="12.2222" fill="white"/>
<path d="M24.6182 28L20.4824 17.9023L19.2793 17.7412V16.377H24.1562V17.7412L22.6416 17.9561L25.2197 24.5732L25.5205 25.5078H25.585L25.9287 24.5732L28.3242 17.9561L26.7666 17.7412V16.377H31.6328V17.7412L30.4082 17.9023L26.4766 28H24.6182Z" fill="#0077B4"/>
</svg>
