<svg xmlns="http://www.w3.org/2000/svg" width="500" height="391.8">
  <defs/>
  <path fill="#93c6fb" fill-rule="evenodd" d="M223 48l2 203h33l2-203zm20 244a22 22 0 00-22 22 22 22 0 0022 21 22 22 0 0021-21 22 22 0 00-21-22z"/>
  <path fill="#313a70" fill-rule="evenodd" d="M228 43l2 203h33l2-203zm20 244a22 22 0 00-22 21 22 22 0 0022 22 22 22 0 0021-22 22 22 0 00-21-21z"/>
  <path style="font-variation-settings:normal" fill="#313a70" d="M249 0A196 196 0 0054 196a196 196 0 00196 196 196 196 0 00196-196A196 196 0 00250 0a196 196 0 00-1 0zm1 6a190 190 0 01190 190 190 190 0 01-190 189A190 190 0 0161 196 190 190 0 01250 6z"/>
</svg>
