<?xml version="1.0" encoding="UTF-8"?>
<svg width="346px" height="160px" viewBox="0 0 346 160" version="1.1" xmlns="http://www.w3.org/2000/svg" xmlns:xlink="http://www.w3.org/1999/xlink">
    <title>vista-optical-logo</title>
    <g id="Page-1" stroke="none" stroke-width="1" fill="none" fill-rule="evenodd">
        <g id="vista-optical-logo" fill="#002D74" fill-rule="nonzero">
            <path d="M161.737557,138.78733 L158.117647,138.78733 L159.131222,132.850679 L161.59276,132.850679 C163.475113,132.850679 166.226244,133.21267 165.791855,135.674208 C165.429864,137.918552 163.764706,138.78733 161.737557,138.78733 Z M286.262443,144.217195 L280.760181,144.217195 L285.176471,134.660633 L286.262443,144.217195 Z M119.891403,139.800905 C120.470588,136.39819 122.352941,132.41629 126.334842,132.41629 C130.244344,132.271493 131.040724,136.180995 130.38914,139.800905 C129.59276,144.217195 127.565611,147.475113 123.800905,147.475113 C119.529412,147.475113 119.239819,143.20362 119.891403,139.800905 Z M23.8914027,109.104072 L0.43438914,28.8144796 L34.3167421,28.8144796 L43.2941176,75.5113122 L52.2714932,28.8144796 L86.1538462,28.8144796 L62.7692308,109.104072 L49.8099548,109.104072 L36.8506787,109.104072 L23.8914027,109.104072 L23.8914027,109.104072 Z M122.425339,108.742081 L89.9909502,108.742081 L89.9909502,28.8144796 L122.425339,28.8144796 L122.425339,108.742081 Z M168.832579,84.0542986 C168.832579,74.6425339 155.221719,76.1628959 155.221719,76.1628959 C126.045249,76.1628959 128.79638,51.6199095 128.79638,51.6199095 C128.79638,24.4705882 162.533937,25.3393665 162.533937,25.3393665 C200.253394,25.3393665 196.561086,51.7647059 196.561086,51.7647059 L171.728507,51.9095023 C171.728507,41.9909502 164.778281,42.5701357 164.778281,42.5701357 C157.393665,41.918552 157.466063,47.4932127 157.466063,47.4932127 C157.466063,55.6742081 165.647059,55.1674208 165.647059,55.1674208 C202.280543,55.1674208 198.226244,83.6199095 198.226244,83.6199095 C198.226244,110.262443 161.882353,109.176471 161.882353,109.176471 C120.108597,109.176471 125.61086,83.9095023 125.61086,83.9095023 L152.325792,83.9095023 C152.325792,92.959276 161.665158,92.2352941 161.665158,92.2352941 C170.352941,92.0904977 168.832579,84.0542986 168.832579,84.0542986 Z M246.80543,0.07239819 L246.660633,28.5972851 L259.330317,28.5972851 L259.330317,51.4751131 L246.877828,51.4751131 L246.877828,79.2036199 C246.877828,90.2081448 259.61991,83.5475113 259.61991,83.5475113 L259.61991,103.963801 C216.036199,118.443439 212.199095,94.5520362 212.199095,94.5520362 L212.199095,51.8371041 L201.339367,51.8371041 L201.339367,28.5972851 L212.41629,28.5972851 L212.41629,14.3348416 L246.80543,0.07239819 Z M264.180995,83.5475113 C264.180995,83.5475113 260.271493,125.393665 311.239819,102.371041 L311.239819,109.031674 L339.113122,109.031674 L339.113122,42.2081448 C339.113122,42.2081448 333.755656,23.6742081 304.579186,23.6742081 C304.579186,23.6742081 269.248869,20.4162896 269.248869,51.7647059 L294.081448,51.7647059 C294.081448,51.7647059 293.140271,43.5113122 302.262443,43.7285068 C302.262443,43.7285068 309.936652,42.8597285 309.936652,51.6199095 L309.936652,58.4253394 C309.936652,58.4977376 264.180995,47.8552036 264.180995,83.5475113 Z M308.850679,83.5475113 C308.850679,83.5475113 308.199095,90.6425339 302.190045,90.6425339 C302.190045,90.6425339 290.38914,92.4524887 293.719457,79.9276018 C293.719457,79.9276018 295.529412,72.1085973 308.850679,73.1221719 L308.850679,83.5475113 L308.850679,83.5475113 Z M0.43438914,159.565611 L339.257919,159.565611 L345.19457,119.384615 L6.37104072,119.384615 L0.43438914,159.565611 Z M329.411765,126.262443 L330.859729,126.262443 L331.221719,129.230769 C331.294118,129.809955 331.366516,130.461538 331.366516,131.040724 L331.438914,131.040724 C331.656109,130.461538 331.945701,129.809955 332.235294,129.230769 L333.755656,126.262443 L335.20362,126.262443 L334.334842,132.561086 L333.248869,132.561086 L333.683258,129.59276 C333.755656,128.941176 333.900452,128.072398 334.045249,127.276018 L334.045249,127.276018 C333.683258,128 333.321267,128.868778 332.959276,129.520362 L331.438914,132.488688 L330.570136,132.488688 L330.208145,129.520362 C330.135747,128.79638 330.063348,128 330.063348,127.276018 L330.063348,127.276018 C329.918552,128 329.701357,128.941176 329.556561,129.59276 L328.832579,132.561086 L327.819005,132.561086 L329.411765,126.262443 Z M323.547511,131.330317 C323.909502,131.547511 324.41629,131.764706 324.995475,131.764706 C325.574661,131.764706 326.153846,131.475113 326.153846,130.823529 C326.153846,130.38914 325.864253,130.099548 325.285068,129.809955 C324.561086,129.447964 323.9819,128.941176 323.9819,128.144796 C323.9819,126.914027 324.995475,126.190045 326.298643,126.190045 C327.022624,126.190045 327.457014,126.334842 327.674208,126.479638 L327.312217,127.348416 C327.095023,127.20362 326.660633,127.058824 326.153846,127.058824 C325.429864,127.058824 325.067873,127.493213 325.067873,127.855204 C325.067873,128.289593 325.429864,128.579186 326.00905,128.868778 C326.80543,129.303167 327.239819,129.809955 327.239819,130.533937 C327.239819,131.764706 326.226244,132.561086 324.778281,132.561086 C323.9819,132.561086 323.402715,132.343891 323.113122,132.126697 L323.547511,131.330317 Z M310.298643,126.624434 L319.058824,126.624434 L315.438914,147.113122 L327.457014,147.113122 L326.371041,153.339367 L305.59276,153.339367 L310.298643,126.624434 Z M282.135747,126.624434 L291.040724,126.624434 L295.891403,153.339367 L287.20362,153.339367 L286.769231,149.791855 L278.081448,149.791855 L276.488688,153.339367 L267.873303,153.339367 L282.135747,126.624434 Z M235.294118,139.945701 C236.81448,131.330317 243.61991,125.900452 251.076923,125.900452 C259.257919,125.900452 263.095023,129.954751 262.588235,136.832579 L254.262443,136.832579 C254.479638,134.081448 253.031674,132.41629 250.280543,132.41629 C247.239819,132.41629 244.923077,135.022624 243.9819,140.235294 C243.330317,144 243.547511,147.475113 247.963801,147.475113 C250.78733,147.475113 252.452489,145.520362 253.248869,142.986425 L261.647059,142.986425 C259.61991,149.864253 253.972851,154.063348 246.950226,154.063348 C238.117647,153.99095 233.773756,148.561086 235.294118,139.945701 Z M218.714932,126.624434 L227.475113,126.624434 L222.769231,153.339367 L214.00905,153.339367 L218.714932,126.624434 Z M183.819005,126.624434 L208.289593,126.624434 L207.058824,133.647059 L199.167421,133.647059 L195.692308,153.339367 L186.932127,153.339367 L190.40724,133.647059 L182.515837,133.647059 L183.819005,126.624434 Z M151.457014,126.624434 L164.343891,126.624434 C172.0181,126.624434 175.131222,130.171946 174.117647,135.60181 C173.104072,141.321267 169.049774,145.013575 161.375566,145.013575 L156.959276,145.013575 L155.511312,153.339367 L146.751131,153.339367 L151.457014,126.624434 Z M111.131222,139.728507 C112.579186,131.330317 119.239819,125.900452 127.565611,125.900452 C137.122172,125.900452 140.38009,132.778281 139.149321,139.800905 C137.556561,148.923077 130.533937,153.99095 122.642534,153.99095 C114.171946,153.99095 109.538462,148.778281 111.131222,139.728507 Z" id="Shape"></path>
        </g>
    </g>
</svg>